<svg xmlns="http://www.w3.org/2000/svg" width="45.48" height="32.57" viewBox="0 0 45.48 32.57">
  <path id="noun-email-5065067" d="M77.037,225.93a4.823,4.823,0,0,1,2.84-.933h35.735a4.828,4.828,0,0,1,2.789.89L99.09,238.613a2.447,2.447,0,0,1-2.687,0Zm23.837,15.4a5.684,5.684,0,0,1-6.247.01L75.193,228.611A4.828,4.828,0,0,0,75,229.882v22.8a4.885,4.885,0,0,0,4.873,4.886h35.735a4.885,4.885,0,0,0,4.873-4.886v-22.8a4.828,4.828,0,0,0-.208-1.335Z" transform="translate(-75.004 -224.997)" fill="#fff"/>
</svg>
