<svg xmlns="http://www.w3.org/2000/svg" width="59.87" height="59.87" viewBox="0 0 59.87 59.87">
  <path id="noun-phone-3267544" d="M38.391,31.293l8.991,5a2.954,2.954,0,0,1,1.348,3.621A13.382,13.382,0,0,1,31.5,48.076,50.359,50.359,0,0,1,.859,17.437,13.383,13.383,0,0,1,9.025.2a2.957,2.957,0,0,1,3.623,1.348q2.5,4.495,4.994,8.991a3.663,3.663,0,0,1-.471,4.275q-2.1,2.361-4.2,4.721A30.8,30.8,0,0,0,29.4,35.961l4.721-4.2a3.663,3.663,0,0,1,4.275-.471Z" transform="matrix(0.966, 0.259, -0.259, 0.966, 12.627, -0.027)" fill="#fff" fill-rule="evenodd"/>
</svg>
