<?xml version="1.0" standalone="no"?>
<!DOCTYPE svg PUBLIC "-//W3C//DTD SVG 20010904//EN"
 "http://www.w3.org/TR/2001/REC-SVG-20010904/DTD/svg10.dtd">
<svg version="1.0" xmlns="http://www.w3.org/2000/svg"
 width="257.000000pt" height="257.000000pt" viewBox="0 0 257.000000 257.000000"
 preserveAspectRatio="xMidYMid meet">
<metadata>
Created by potrace 1.14, written by Peter Selinger 2001-2017
</metadata>
<g transform="translate(0.000000,257.000000) scale(0.100000,-0.100000)"
fill="#000000" stroke="none">
<path d="M10 1285 l0 -1275 1275 0 1275 0 0 1275 0 1275 -1275 0 -1275 0 0
-1275z m1581 876 c101 -26 189 -64 274 -118 86 -56 135 -101 135 -126 0 -22
-153 -183 -182 -193 -13 -4 -36 7 -71 35 -126 96 -294 143 -445 122 -61 -9
-87 -9 -97 -1 -16 13 -95 213 -95 240 0 32 8 35 170 64 53 10 238 -4 311 -23z
m-584 -79 c14 -9 93 -207 93 -233 0 -21 -11 -32 -88 -87 -99 -72 -179 -187
-218 -317 -29 -95 -24 -249 9 -351 41 -125 134 -245 246 -319 21 -15 41 -34
44 -44 4 -15 -65 -207 -86 -239 -16 -23 -55 -12 -131 38 -187 122 -327 321
-383 547 -12 49 -17 108 -17 213 1 128 4 155 28 234 68 225 216 422 397 529
64 37 84 43 106 29z m489 -345 c2 -7 -7 -111 -21 -230 -14 -119 -25 -224 -25
-232 0 -9 -11 -27 -25 -40 -45 -46 -125 -24 -141 39 -4 15 22 91 81 237 48
118 92 220 97 227 13 16 27 15 34 -1z m410 -979 c46 -45 87 -91 90 -102 5 -16
-3 -29 -40 -61 -172 -152 -442 -235 -674 -207 -118 14 -168 28 -176 47 -6 17
69 222 90 244 10 11 27 12 97 3 164 -21 316 18 447 117 30 23 61 41 68 41 8 0
52 -37 98 -82z"/>
</g>
</svg>
